<?xml version="1.0" encoding="UTF-8"?>
<!DOCTYPE svg PUBLIC "-//W3C//DTD SVG 1.1//EN"
    "http://www.w3.org/Graphics/SVG/1.1/DTD/svg11.dtd" >
<svg contentScriptType="text/ecmascript" width="1449.246"
     xmlns:xlink="http://www.w3.org/1999/xlink" zoomAndPan="magnify"
     contentStyleType="text/css"
     viewBox="-732.278931 -694.826050 1449.245972 1409.867920"
     height="1409.8679" preserveAspectRatio="xMidYMid meet"
     xmlns="http://www.w3.org/2000/svg" version="1.1">
    <g id="edges">
        <path stroke-linecap="round" fill="none" class="id_新闻 id_社区"
              d="M -194.688583,117.344185 A 338.555284,338.555284 0,0 1,180.313278,164.456589"
              stroke="#bbe4da" stroke-width="4.8" stroke-opacity="0.2"/>
        <path fill="none" stroke-width="9.6"
              d="M -216.352524,129.285080 C -166.878845,79.811394 -166.878845,178.758759 -216.352524,129.285080"
              class="id_新闻" stroke-opacity="0.2" stroke="#89d0ba"/>
        <path stroke-linecap="round" fill="none" class="id_新闻 id_旗下"
              d="M -196.521408,114.498650 A 743.293733,743.293733 0,0 1,667.393005,111.115448"
              stroke="#bbe4da" stroke-width="4.8" stroke-opacity="0.2"/>
        <path stroke-linecap="round" fill="none" class="id_新闻 id_兴趣"
              d="M -223.633560,105.644058 A 708.153251,708.153251 0,0 1,48.604847,-669.690552"
              stroke="#bbe4da" stroke-width="4.8" stroke-opacity="0.2"/>
        <path stroke-linecap="round" fill="none" class="id_新闻 id_小伙伴"
              d="M -200.839554,148.553162 A 458.513064,458.513064 0,0 1,-177.222931,670.054260"
              stroke="#bbe4da" stroke-width="4.8" stroke-opacity="0.2"/>
        <path stroke-linecap="round" fill="none" class="id_新闻 id_交流"
              d="M -195.911560,115.353867 A 547.070647,547.070647 0,0 1,432.045502,138.056137"
              stroke="#bbe4da" stroke-width="4.8" stroke-opacity="0.2"/>
        <path stroke-linecap="round" fill="none" class="id_新闻 id_无限"
              d="M -232.038605,110.157661 A 174.535465,174.535465 0,0 1,-254.183121,-48.708309"
              stroke="#6fc2a5" stroke-width="5.6" stroke-opacity="0.2"/>
        <path fill="none" stroke-width="15.0"
              d="M -89.448761,-233.457901 C -27.343498,-295.563171 -27.343498,-171.352631 -89.448761,-233.457901"
              class="id_人工智能" stroke-opacity="0.2" stroke="#60bd9d"/>
        <path stroke-linecap="round" fill="none" class="id_人工智能 id_智能"
              d="M -60.037907,-243.421204 A 492.103099,492.103099 0,0 1,471.132843,-75.196541"
              stroke="#a6dacc" stroke-width="12.8" stroke-opacity="0.2"/>
        <path stroke-linecap="round" fill="none" class="id_人工智能 id_科技"
              d="M -68.411133,-210.617493 A 387.230057,387.230057 0,0 1,-10.319808,198.819763"
              stroke="#60bd9d" stroke-width="8.6" stroke-opacity="0.2"/>
        <path stroke-linecap="round" fill="none" class="id_人工智能 id_技术"
              d="M -119.528206,-225.744736 A 220.409639,220.409639 0,0 1,-331.889557,-305.736633"
              stroke="#98d4c2" stroke-width="9.6" stroke-opacity="0.2"/>
        <path stroke-linecap="round" fill="none" class="id_人工智能 id_行业"
              d="M -90.049873,-264.504700 A 204.148170,204.148170 0,0 1,21.396315,-434.975800"
              stroke="#8acfb9" stroke-width="6.6" stroke-opacity="0.2"/>
        <path stroke-linecap="round" fill="none" class="id_人工智能 id_人类"
              d="M -59.893574,-223.931259 A 594.449388,594.449388 0,0 1,337.000336,313.294586"
              stroke="#74c6ab" stroke-width="18.0" stroke-opacity="0.2"/>
        <path stroke-linecap="round" fill="none" class="id_人工智能 id_创新"
              d="M -109.674309,-209.895355 A 316.322874,316.322874 0,0 1,-432.237366,-125.098419"
              stroke="#74c6ab" stroke-width="7.0" stroke-opacity="0.2"/>
        <path stroke-linecap="round" fill="none" class="id_人工智能 id_模型"
              d="M -61.607651,-247.210663 A 185.280309,185.280309 0,0 1,96.361862,-236.686234"
              stroke="#40a277" stroke-width="8.0" stroke-opacity="0.2"/>
        <path stroke-linecap="round" fill="none" class="id_人工智能 id_时代"
              d="M -58.440990,-235.126465 A 321.218783,321.218783 0,0 1,224.835083,-68.562607"
              stroke="#50af8a" stroke-width="9.8" stroke-opacity="0.2"/>
        <path stroke-linecap="round" fill="none" class="id_人工智能 id_产业"
              d="M -76.605949,-205.185516 A 512.514221,512.514221 0,0 1,-188.806107,356.709625"
              stroke="#82ccb5" stroke-width="6.4" stroke-opacity="0.2"/>
        <path stroke-linecap="round" fill="none" class="id_社会 id_人类"
              d="M 609.850708,-311.295807 A 593.470690,593.470690 0,0 1,358.434631,324.900330"
              stroke="#bbe4da" stroke-width="4.8" stroke-opacity="0.2"/>
        <path fill="none" stroke-width="6.4"
              d="M -48.124969,514.936584 C -19.703917,486.515533 -19.703917,543.357666 -48.124969,514.936584"
              class="id_机器人" stroke-opacity="0.2" stroke="#d0ece8"/>
        <path stroke-linecap="round" fill="none" class="id_机器人 id_人类"
              d="M -41.098011,502.585022 A 353.532650,353.532650 0,0 1,313.123535,333.638245"
              stroke="#acded1" stroke-width="5.2000003" stroke-opacity="0.2"/>
        <path fill="none" stroke-width="7.4"
              d="M -2.425686,-7.476218 C 97.574310,-107.476219 97.574310,92.523781 -2.425686,-7.476218"
              class="id_AI" stroke-opacity="0.2" stroke="#006d2c"/>
        <path stroke-linecap="round" fill="none" class="id_AI id_科技"
              d="M 18.094826,38.118832 A 195.912442,195.912442 0,0 1,-5.213350,202.018616"
              stroke="#309564" stroke-width="10.0" stroke-opacity="0.2"/>
        <path stroke-linecap="round" fill="none" class="id_AI id_感受"
              d="M -50.642044,5.759441 A 571.490100,571.490100 0,0 1,-642.685059,-219.226883"
              stroke="#68ac8a" stroke-width="4.4" stroke-opacity="0.2"/>
        <path stroke-linecap="round" fill="none" class="id_AI id_行业"
              d="M -25.591238,-51.786007 A 364.146765,364.146765 0,0 1,26.157860,-428.606781"
              stroke="#5aa781" stroke-width="6.6" stroke-opacity="0.2"/>
        <path stroke-linecap="round" fill="none" class="id_AI id_人类"
              d="M 46.454712,3.045495 A 403.887491,403.887491 0,0 1,333.420959,313.623474"
              stroke="#449e73" stroke-width="5.4" stroke-opacity="0.2"/>
        <path stroke-linecap="round" fill="none" class="id_AI id_创新"
              d="M -50.059750,7.722334 A 391.912038,391.912038 0,0 1,-439.871399,-114.176659"
              stroke="#449e73" stroke-width="10.400001" stroke-opacity="0.2"/>
        <path stroke-linecap="round" fill="none" class="id_AI id_视频"
              d="M -0.922960,42.501194 A 560.377734,560.377734 0,0 1,-353.342377,554.723389"
              stroke="#6faf8e" stroke-width="4.0" stroke-opacity="0.2"/>
        <path stroke-linecap="round" fill="none" class="id_AI id_无限"
              d="M -51.097290,3.972575 A 206.895680,206.895680 0,0 1,-218.469666,-53.779167"
              stroke="#2a905e" stroke-width="5.6" stroke-opacity="0.2"/>
        <path stroke-linecap="round" fill="none" class="id_AI id_模型"
              d="M 0.698929,-57.378490 A 203.208394,203.208394 0,0 1,92.467651,-191.995438"
              stroke="#107a3e" stroke-width="13.6" stroke-opacity="0.2"/>
        <path stroke-linecap="round" fill="none" class="id_AI id_时代"
              d="M 37.899734,-37.037346 A 204.039744,204.039744 0,0 1,207.079666,-50.732243"
              stroke="#208751" stroke-width="12.8" stroke-opacity="0.2"/>
        <path stroke-linecap="round" fill="none" class="id_AI id_产业"
              d="M 1.797510,42.345108 A 357.109386,357.109386 0,0 1,-185.350296,361.613953"
              stroke="#52a47c" stroke-width="6.6" stroke-opacity="0.2"/>
        <path stroke-linecap="round" fill="none" class="id_AI id_赋能"
              d="M 40.404724,18.322153 A 563.745654,563.745654 0,0 1,282.523499,591.577698"
              stroke="#61a985" stroke-width="6.6" stroke-opacity="0.2"/>
        <path stroke-linecap="round" fill="none" class="id_AI id_人工"
              d="M -4.372151,-57.438316 A 408.350890,408.350890 0,0 1,241.673004,-423.077911"
              stroke="#76b293" stroke-width="4.0" stroke-opacity="0.2"/>
        <path stroke-linecap="round" fill="none" class="id_AI id_加速"
              d="M 46.308617,3.702671 A 584.662859,584.662859 0,0 1,471.416016,494.336334"
              stroke="#68ac8a" stroke-width="5.4" stroke-opacity="0.2"/>
        <path stroke-linecap="round" fill="none" class="id_AI id_消费"
              d="M 36.493977,23.912632 A 372.038509,372.038509 0,0 1,140.566528,403.346191"
              stroke="#68ac8a" stroke-width="5.4" stroke-opacity="0.2"/>
        <path stroke-linecap="round" fill="none" class="id_AI id_百业"
              d="M -52.330471,-10.560448 A 564.337034,564.337034 0,0 1,-533.120544,-409.507416"
              stroke="#68ac8a" stroke-width="6.4" stroke-opacity="0.2"/>
        <path stroke-linecap="round" fill="none" class="id_AI id_拥抱"
              d="M 5.837265,-56.788727 A 571.351194,571.351194 0,0 1,458.768372,-499.254395"
              stroke="#68ac8a" stroke-width="6.6" stroke-opacity="0.2"/>
        <path stroke-linecap="round" fill="none" class="id_AI id_致力"
              d="M 17.809446,-53.198635 A 383.199905,383.199905 0,0 1,369.042725,-258.607635"
              stroke="#68ac8a" stroke-width="6.4" stroke-opacity="0.2"/>
        <path stroke-linecap="round" fill="none" class="id_AI id_引擎"
              d="M -48.620628,-26.608057 A 567.273588,567.273588 0,0 1,-375.500275,-563.161865"
              stroke="#68ac8a" stroke-width="6.6" stroke-opacity="0.2"/>
        <path stroke-linecap="round" fill="none" class="id_科技 id_改变"
              d="M -49.726582,244.254944 A 525.641916,525.641916 0,0 1,-646.915588,226.535141"
              stroke="#a6dacc" stroke-width="6.6" stroke-opacity="0.2"/>
        <path stroke-linecap="round" fill="none" class="id_科技 id_感受"
              d="M -55.224514,226.264084 A 646.556167,646.556167 0,0 1,-646.498169,-217.348297"
              stroke="#98d4c2" stroke-width="4.8" stroke-opacity="0.2"/>
        <path stroke-linecap="round" fill="none" class="id_科技 id_带来"
              d="M -45.867062,204.391968 A 761.049876,761.049876 0,0 1,-165.628967,-667.509216"
              stroke="#a6dacc" stroke-width="4.0" stroke-opacity="0.2"/>
        <path stroke-linecap="round" fill="none" class="id_科技 id_创新"
              d="M -55.114491,223.976166 A 468.179506,468.179506 0,0 1,-449.257935,-109.370216"
              stroke="#74c6ab" stroke-width="10.6" stroke-opacity="0.2"/>
        <path stroke-linecap="round" fill="none" class="id_科技 id_无限"
              d="M -53.220596,215.631073 A 311.753350,311.753350 0,0 1,-239.394699,-45.643902"
              stroke="#5ab897" stroke-width="8.0" stroke-opacity="0.2"/>
        <path stroke-linecap="round" fill="none" class="id_科技 id_模型"
              d="M -32.191437,196.610901 A 387.203379,387.203379 0,0 1,96.759430,-184.946350"
              stroke="#40a277" stroke-width="7.4" stroke-opacity="0.2"/>
        <path stroke-linecap="round" fill="none" class="id_科技 id_时代"
              d="M -18.039116,196.169998 A 310.246977,310.246977 0,0 1,204.232117,-27.569054"
              stroke="#50af8a" stroke-width="7.4" stroke-opacity="0.2"/>
        <path stroke-linecap="round" fill="none" class="id_科技 id_产业"
              d="M -34.276283,255.973969 A 191.899877,191.899877 0,0 1,-183.228378,369.075958"
              stroke="#82ccb5" stroke-width="4.0" stroke-opacity="0.2"/>
        <path stroke-linecap="round" fill="none" class="id_科技 id_赋能"
              d="M 5.556236,235.576675 A 405.877059,405.877059 0,0 1,278.486664,591.273804"
              stroke="#91d1be" stroke-width="5.6" stroke-opacity="0.2"/>
        <path stroke-linecap="round" fill="none" class="id_举办 id_无限"
              d="M 592.501404,327.375763 A 778.776774,778.776774 0,0 1,-224.305893,-49.711506"
              stroke="#a1d6c6" stroke-width="5.6" stroke-opacity="0.2"/>
        <path stroke-linecap="round" fill="none" class="id_感受 id_无限"
              d="M -637.102661,-234.671555 A 364.860088,364.860088 0,0 1,-259.448547,-105.816841"
              stroke="#92d0bc" stroke-width="7.0" stroke-opacity="0.2"/>
        <path fill="none" stroke-width="5.6"
              d="M -340.348145,-317.155548 C -311.927094,-345.576599 -311.927094,-288.734497 -340.348145,-317.155548"
              class="id_技术" stroke-opacity="0.2" stroke="#d0ece8"/>
        <path stroke-linecap="round" fill="none" class="id_行业 id_模型"
              d="M 53.516426,-432.352356 A 208.061464,208.061464 0,0 1,138.466721,-254.252960"
              stroke="#6ab493" stroke-width="6.0" stroke-opacity="0.2"/>
        <path stroke-linecap="round" fill="none" class="id_行业 id_时代"
              d="M 54.434753,-433.888519 A 379.458679,379.458679 0,0 1,245.841415,-71.858116"
              stroke="#7ac1a6" stroke-width="5.6" stroke-opacity="0.2"/>
        <path stroke-linecap="round" fill="none" class="id_行业 id_产业"
              d="M 44.351662,-425.203827 A 707.179232,707.179232 0,0 1,-187.371307,358.390259"
              stroke="#acded1" stroke-width="5.4" stroke-opacity="0.2"/>
        <path fill="none" stroke-width="14.0"
              d="M 337.467957,338.027008 C 386.941650,288.553314 386.941650,387.500702 337.467957,338.027008"
              class="id_人类" stroke-opacity="0.2" stroke="#89d0ba"/>
        <path stroke-linecap="round" fill="none" class="id_人类 id_创造"
              d="M 313.955597,345.713348 A 701.136599,701.136599 0,0 1,-457.968414,89.550209"
              stroke="#bbe4da" stroke-width="4.0" stroke-opacity="0.2"/>
        <path stroke-linecap="round" fill="none" class="id_人类 id_超越"
              d="M 337.109253,362.761261 A 368.270885,368.270885 0,0 1,88.613586,693.452271"
              stroke="#bbe4da" stroke-width="5.6" stroke-opacity="0.2"/>
        <path stroke-linecap="round" fill="none" class="id_创新 id_无限"
              d="M -432.168213,-141.272720 A 185.108737,185.108737 0,0 1,-263.299255,-102.615730"
              stroke="#6fc2a5" stroke-width="5.6" stroke-opacity="0.2"/>
        <path stroke-linecap="round" fill="none" class="id_创新 id_模型"
              d="M -437.482849,-150.149719 A 493.724905,493.724905 0,0 1,92.763466,-230.775269"
              stroke="#54ab85" stroke-width="7.2000003" stroke-opacity="0.2"/>
        <path stroke-linecap="round" fill="none" class="id_创新 id_时代"
              d="M -433.660950,-144.751266 A 586.163866,586.163866 0,0 1,213.601181,-60.347389"
              stroke="#64b998" stroke-width="6.4" stroke-opacity="0.2"/>
        <path stroke-linecap="round" fill="none" class="id_创新 id_精彩"
              d="M -439.109619,-114.829224 A 354.641328,354.641328 0,0 1,-398.768921,278.638763"
              stroke="#b3e1d5" stroke-width="4.4" stroke-opacity="0.2"/>
        <path stroke-linecap="round" fill="none" class="id_创新 id_成果"
              d="M -453.050507,-157.892685 A 356.142437,356.142437 0,0 1,-188.393143,-454.255585"
              stroke="#b3e1d5" stroke-width="4.8" stroke-opacity="0.2"/>
        <path stroke-linecap="round" fill="none" class="id_魅力 id_无限"
              d="M 273.867889,-632.208374 A 636.156591,636.156591 0,0 1,-207.826599,-85.788414"
              stroke="#a1d6c6" stroke-width="6.2000003" stroke-opacity="0.2"/>
        <path stroke-linecap="round" fill="none" class="id_视频 id_无限"
              d="M -369.784760,548.139099 A 541.583027,541.583027 0,0 1,-264.149963,-55.820381"
              stroke="#99d3c1" stroke-width="5.8" stroke-opacity="0.2"/>
        <path stroke-linecap="round" fill="none" class="id_无限 id_精彩"
              d="M -234.497604,-46.133820 A 335.890006,335.890006 0,0 1,-394.167053,283.155243"
              stroke="#99d3c1" stroke-width="5.6" stroke-opacity="0.2"/>
        <path stroke-linecap="round" fill="none" class="id_无限 id_成果"
              d="M -253.908646,-108.999565 A 319.644890,319.644890 0,0 1,-185.224487,-448.541809"
              stroke="#99d3c1" stroke-width="5.6" stroke-opacity="0.2"/>
        <path stroke-linecap="round" fill="none" class="id_无限 id_博览会"
              d="M -264.310730,-55.988930 A 379.792491,379.792491 0,0 1,-681.371765,-2.329361"
              stroke="#a1d6c6" stroke-width="5.6" stroke-opacity="0.2"/>
        <path stroke-linecap="round" fill="none" class="id_无限 id_亮相"
              d="M -238.011978,-45.707973 A 502.988312,502.988312 0,0 1,-543.064941,434.027405"
              stroke="#a1d6c6" stroke-width="5.6" stroke-opacity="0.2"/>
        <path fill="none" stroke-width="8.0"
              d="M 131.759277,-211.086761 C 219.127701,-298.455200 219.127701,-123.718338 131.759277,-211.086761"
              class="id_模型" stroke-opacity="0.2" stroke="#208751"/>
        <path stroke-linecap="round" fill="none" class="id_模型 id_时代"
              d="M 170.102036,-190.154892 A 172.763284,172.763284 0,0 1,240.172256,-72.180634"
              stroke="#309464" stroke-width="11.6" stroke-opacity="0.2"/>
        <path stroke-linecap="round" fill="none" class="id_模型 id_产业"
              d="M 135.319077,-167.547836 A 559.747903,559.747903 0,0 1,-184.957855,362.436981"
              stroke="#62b18f" stroke-width="6.0" stroke-opacity="0.2"/>
        <path stroke-linecap="round" fill="none" class="id_模型 id_赋能"
              d="M 162.799240,-180.348663 A 693.203047,693.203047 0,0 1,286.437134,592.902771"
              stroke="#71b698" stroke-width="6.0" stroke-opacity="0.2"/>
        <path stroke-linecap="round" fill="none" class="id_模型 id_开源"
              d="M 171.660110,-228.869736 A 471.788566,471.788566 0,0 1,682.078125,-118.129990"
              stroke="#86bfa6" stroke-width="7.2000003" stroke-opacity="0.2"/>
        <path stroke-linecap="round" fill="none" class="id_模型 id_加速"
              d="M 169.726547,-189.481277 A 663.639805,663.639805 0,0 1,475.704620,494.500885"
              stroke="#78b99c" stroke-width="5.6" stroke-opacity="0.2"/>
        <path stroke-linecap="round" fill="none" class="id_模型 id_消费"
              d="M 156.745316,-175.253693 A 523.323700,523.323700 0,0 1,144.539917,405.342896"
              stroke="#78b99c" stroke-width="5.4" stroke-opacity="0.2"/>
        <path stroke-linecap="round" fill="none" class="id_模型 id_百业"
              d="M 90.013969,-198.216660 A 584.678627,584.678627 0,0 1,-528.634460,-411.705902"
              stroke="#78b99c" stroke-width="5.6" stroke-opacity="0.2"/>
        <path stroke-linecap="round" fill="none" class="id_模型 id_拥抱"
              d="M 143.832443,-253.069489 A 373.375000,373.375000 0,0 1,458.600830,-500.559662"
              stroke="#78b99c" stroke-width="5.6" stroke-opacity="0.2"/>
        <path stroke-linecap="round" fill="none" class="id_模型 id_致力"
              d="M 164.458466,-240.053513 A 213.165860,213.165860 0,0 1,370.296143,-263.784363"
              stroke="#78b99c" stroke-width="5.8" stroke-opacity="0.2"/>
        <path stroke-linecap="round" fill="none" class="id_模型 id_引擎"
              d="M 88.088188,-212.157333 A 520.890584,520.890584 0,0 1,-370.357269,-563.841125"
              stroke="#78b99c" stroke-width="5.8" stroke-opacity="0.2"/>
        <path stroke-linecap="round" fill="none" class="id_时代 id_产业"
              d="M 232.558167,1.608506 A 501.535472,501.535472 0,0 1,-183.290375,368.469116"
              stroke="#72bea2" stroke-width="5.6" stroke-opacity="0.2"/>
        <path stroke-linecap="round" fill="none" class="id_时代 id_赋能"
              d="M 264.047638,-5.490875 A 536.279632,536.279632 0,0 1,288.074951,593.821106"
              stroke="#81c4ab" stroke-width="5.8" stroke-opacity="0.2"/>
        <path stroke-linecap="round" fill="none" class="id_时代 id_加速"
              d="M 272.522186,-14.923518 A 492.324810,492.324810 0,0 1,476.195892,494.604340"
              stroke="#88c7af" stroke-width="5.6" stroke-opacity="0.2"/>
        <path stroke-linecap="round" fill="none" class="id_时代 id_消费"
              d="M 254.315903,0.054333 A 386.388687,386.388687 0,0 1,146.952927,407.536316"
              stroke="#88c7af" stroke-width="5.4" stroke-opacity="0.2"/>
        <path stroke-linecap="round" fill="none" class="id_时代 id_百业"
              d="M 203.968292,-29.061481 A 724.559908,724.559908 0,0 1,-530.546265,-410.525299"
              stroke="#88c7af" stroke-width="5.8" stroke-opacity="0.2"/>
        <path stroke-linecap="round" fill="none" class="id_时代 id_拥抱"
              d="M 235.693344,-71.824371 A 434.418928,434.418928 0,0 1,460.177490,-495.118073"
              stroke="#88c7af" stroke-width="6.0" stroke-opacity="0.2"/>
        <path stroke-linecap="round" fill="none" class="id_时代 id_致力"
              d="M 241.236481,-72.185936 A 220.530209,220.530209 0,0 1,370.101318,-252.487656"
              stroke="#88c7af" stroke-width="5.6" stroke-opacity="0.2"/>
        <path stroke-linecap="round" fill="none" class="id_时代 id_引擎"
              d="M 203.732513,-38.779362 A 683.824181,683.824181 0,0 1,-371.721771,-563.470703"
              stroke="#88c7af" stroke-width="5.6" stroke-opacity="0.2"/>
    </g>
    <g id="nodes">
        <circle fill-opacity="1.0" fill="#89d0ba" r="22.757896" cx="-216.35252"
                class="id_新闻" cy="129.28508" stroke="#5f9182"
                stroke-opacity="1.0" stroke-width="3.9578948"/>
        <circle fill-opacity="1.0" fill="#edf8fb" r="9.2" cx="187.75209"
                class="id_社区" cy="171.13971" stroke="#a5adaf"
                stroke-opacity="1.0" stroke-width="1.5999999"/>
        <circle fill-opacity="1.0" fill="#edf8fb" r="9.2" cx="675.51465"
                class="id_旗下" cy="116.94974" stroke="#a5adaf"
                stroke-opacity="1.0" stroke-width="1.5999999"/>
        <circle fill-opacity="1.0" fill="#edf8fb" r="9.2" cx="56.817986"
                class="id_兴趣" cy="-675.3953" stroke="#a5adaf"
                stroke-opacity="1.0" stroke-width="1.5999999"/>
        <circle fill-opacity="1.0" fill="#edf8fb" r="9.2" cx="-182.62993"
                class="id_小伙伴" cy="678.46643" stroke="#a5adaf"
                stroke-opacity="1.0" stroke-width="1.5999999"/>
        <circle fill-opacity="1.0" fill="#edf8fb" r="9.2" cx="439.96362"
                class="id_交流" cy="144.1638" stroke="#a5adaf"
                stroke-opacity="1.0" stroke-width="1.5999999"/>
        <circle fill-opacity="1.0" fill="#55b491" r="30.505262" cx="-240.23776"
                class="id_无限" cy="-78.79108" stroke="#3b7d65"
                stroke-opacity="1.0" stroke-width="5.305263"/>
        <circle fill-opacity="1.0" fill="#60bd9d" r="28.56842" cx="-89.44876"
                class="id_人工智能" cy="-233.4579" stroke="#43846d"
                stroke-opacity="1.0" stroke-width="4.968421"/>
        <circle fill-opacity="1.0" fill="#edf8fb" r="9.2" cx="477.20172"
                class="id_智能" cy="-67.24867" stroke="#a5adaf"
                stroke-opacity="1.0" stroke-width="1.5999999"/>
        <circle fill-opacity="1.0" fill="#60bd9d" r="28.56842" cx="-24.173815"
                class="id_科技" cy="226.61063" stroke="#43846d"
                stroke-opacity="1.0" stroke-width="4.968421"/>
        <circle fill-opacity="1.0" fill="#d0ece8" r="13.073685" cx="-340.34814"
                class="id_技术" cy="-317.15555" stroke="#91a5a2"
                stroke-opacity="1.0" stroke-width="2.2736843"/>
        <circle fill-opacity="1.0" fill="#b4e1d6" r="16.947369" cx="38.183064"
                class="id_行业" cy="-442.56134" stroke="#7d9d95"
                stroke-opacity="1.0" stroke-width="2.9473684"/>
        <circle fill-opacity="1.0" fill="#89d0ba" r="22.757896" cx="337.46796"
                class="id_人类" cy="338.027" stroke="#5f9182" stroke-opacity="1.0"
                stroke-width="3.9578948"/>
        <circle fill-opacity="1.0" fill="#89d0ba" r="22.757896" cx="-455.58008"
                class="id_创新" cy="-133.28552" stroke="#5f9182"
                stroke-opacity="1.0" stroke-width="3.9578948"/>
        <circle fill-opacity="1.0" fill="#208751" r="40.189476" cx="131.75928"
                class="id_模型" cy="-211.08676" stroke="#165e38"
                stroke-opacity="1.0" stroke-width="6.989474"/>
        <circle fill-opacity="1.0" fill="#40a277" r="34.37895" cx="240.89049"
                class="id_时代" cy="-34.819115" stroke="#2c7153"
                stroke-opacity="1.0" stroke-width="5.9789476"/>
        <circle fill-opacity="1.0" fill="#a5dbcd" r="18.88421" cx="-203.67719"
                class="id_产业" cy="370.85815" stroke="#73998f"
                stroke-opacity="1.0" stroke-width="3.2842104"/>
        <circle fill-opacity="1.0" fill="#edf8fb" r="9.2" cx="607.4125"
                class="id_社会" cy="-320.994" stroke="#a5adaf"
                stroke-opacity="1.0" stroke-width="1.5999999"/>
        <circle fill-opacity="1.0" fill="#d0ece8" r="13.073685" cx="-48.12497"
                class="id_机器人" cy="514.9366" stroke="#91a5a2"
                stroke-opacity="1.0" stroke-width="2.2736843"/>
        <circle fill-opacity="1.0" fill="#006d2c" r="46.0" cx="-2.4256864"
                class="id_AI" cy="-7.476218" stroke="#004c1e"
                stroke-opacity="1.0" stroke-width="8.0"/>
        <circle fill-opacity="1.0" fill="#d0ece8" r="13.073685" cx="-650.8013"
                class="id_感受" cy="-230.89165" stroke="#91a5a2"
                stroke-opacity="1.0" stroke-width="2.2736843"/>
        <circle fill-opacity="1.0" fill="#def2f1" r="11.136842" cx="-364.6316"
                class="id_视频" cy="559.0927" stroke="#9ba9a8"
                stroke-opacity="1.0" stroke-width="1.936842"/>
        <circle fill-opacity="1.0" fill="#c2e6df" r="15.010525" cx="279.2899"
                class="id_赋能" cy="607.5698" stroke="#87a19c"
                stroke-opacity="1.0" stroke-width="2.610526"/>
        <circle fill-opacity="1.0" fill="#edf8fb" r="9.2" cx="250.8982"
                class="id_人工" cy="-426.9374" stroke="#a5adaf"
                stroke-opacity="1.0" stroke-width="1.5999999"/>
        <circle fill-opacity="1.0" fill="#d0ece8" r="13.073685" cx="473.02173"
                class="id_加速" cy="508.45584" stroke="#91a5a2"
                stroke-opacity="1.0" stroke-width="2.2736843"/>
        <circle fill-opacity="1.0" fill="#d0ece8" r="13.073685" cx="136.25108"
                class="id_消费" cy="416.88562" stroke="#91a5a2"
                stroke-opacity="1.0" stroke-width="2.2736843"/>
        <circle fill-opacity="1.0" fill="#d0ece8" r="13.073685" cx="-537.0337"
                class="id_百业" cy="-423.16855" stroke="#91a5a2"
                stroke-opacity="1.0" stroke-width="2.2736843"/>
        <circle fill-opacity="1.0" fill="#d0ece8" r="13.073685" cx="472.76437"
                class="id_拥抱" cy="-501.71426" stroke="#91a5a2"
                stroke-opacity="1.0" stroke-width="2.2736843"/>
        <circle fill-opacity="1.0" fill="#d0ece8" r="13.073685" cx="383.23618"
                class="id_致力" cy="-257.91116" stroke="#91a5a2"
                stroke-opacity="1.0" stroke-width="2.2736843"/>
        <circle fill-opacity="1.0" fill="#d0ece8" r="13.073685" cx="-374.75818"
                class="id_引擎" cy="-577.353" stroke="#91a5a2"
                stroke-opacity="1.0" stroke-width="2.2736843"/>
        <circle fill-opacity="1.0" fill="#edf8fb" r="9.2" cx="-654.91486"
                class="id_改变" cy="220.53416" stroke="#a5adaf"
                stroke-opacity="1.0" stroke-width="1.5999999"/>
        <circle fill-opacity="1.0" fill="#edf8fb" r="9.2" cx="-160.95277"
                class="id_带来" cy="-676.3485" stroke="#a5adaf"
                stroke-opacity="1.0" stroke-width="1.5999999"/>
        <circle fill-opacity="1.0" fill="#edf8fb" r="9.2" cx="602.322"
                class="id_举办" cy="325.49008" stroke="#a5adaf"
                stroke-opacity="1.0" stroke-width="1.5999999"/>
        <circle fill-opacity="1.0" fill="#edf8fb" r="9.2" cx="-463.81552"
                class="id_创造" cy="81.43778" stroke="#a5adaf"
                stroke-opacity="1.0" stroke-width="1.5999999"/>
        <circle fill-opacity="1.0" fill="#edf8fb" r="9.2" cx="79.11016"
                class="id_超越" cy="696.56433" stroke="#a5adaf"
                stroke-opacity="1.0" stroke-width="1.5999999"/>
        <circle fill-opacity="1.0" fill="#def2f1" r="11.136842" cx="-404.6409"
                class="id_精彩" cy="289.2245" stroke="#9ba9a8"
                stroke-opacity="1.0" stroke-width="1.936842"/>
        <circle fill-opacity="1.0" fill="#def2f1" r="11.136842" cx="-176.61523"
                class="id_成果" cy="-457.0517" stroke="#9ba9a8"
                stroke-opacity="1.0" stroke-width="1.936842"/>
        <circle fill-opacity="1.0" fill="#edf8fb" r="9.2" cx="274.91684"
                class="id_魅力" cy="-642.1532" stroke="#a5adaf"
                stroke-opacity="1.0" stroke-width="1.5999999"/>
        <circle fill-opacity="1.0" fill="#edf8fb" r="9.2" cx="-690.27893"
                class="id_博览会" cy="-6.8749456" stroke="#a5adaf"
                stroke-opacity="1.0" stroke-width="1.5999999"/>
        <circle fill-opacity="1.0" fill="#edf8fb" r="9.2" cx="-552.2992"
                class="id_亮相" cy="437.86514" stroke="#a5adaf"
                stroke-opacity="1.0" stroke-width="1.5999999"/>
        <circle fill-opacity="1.0" fill="#edf8fb" r="9.2" cx="688.96704"
                class="id_开源" cy="-110.881355" stroke="#a5adaf"
                stroke-opacity="1.0" stroke-width="1.5999999"/>
    </g>
    <g id="node-labels">
        <text font-size="28" x="-216.35252" y="136.03442" fill="#000000"
              style="text-anchor: middle; dominant-baseline: central;"
              font-family="微软雅黑" class="id_新闻">
            新闻
        </text>
        <text font-size="28" x="187.75209" y="177.81387" fill="#000000"
              style="text-anchor: middle; dominant-baseline: central;"
              font-family="微软雅黑" class="id_社区">
            社区
        </text>
        <text font-size="28" x="675.51465" y="123.74693" fill="#000000"
              style="text-anchor: middle; dominant-baseline: central;"
              font-family="微软雅黑" class="id_旗下">
            旗下
        </text>
        <text font-size="28" x="56.817986" y="-668.6665" fill="#000000"
              style="text-anchor: middle; dominant-baseline: central;"
              font-family="微软雅黑" class="id_兴趣">
            兴趣
        </text>
        <text font-size="28" x="-182.62993" y="685.2295" fill="#000000"
              style="text-anchor: middle; dominant-baseline: central;"
              font-family="微软雅黑" class="id_小伙伴">
            小伙伴
        </text>
        <text font-size="28" x="439.96362" y="151.04303" fill="#000000"
              style="text-anchor: middle; dominant-baseline: central;"
              font-family="微软雅黑" class="id_交流">
            交流
        </text>
        <text font-size="28" x="-240.23776" y="-72.342514" fill="#000000"
              style="text-anchor: middle; dominant-baseline: central;"
              font-family="微软雅黑" class="id_无限">
            无限
        </text>
        <text font-size="28" x="-89.44876" y="-226.61969" fill="#000000"
              style="text-anchor: middle; dominant-baseline: central;"
              font-family="微软雅黑" class="id_人工智能">
            人工智能
        </text>
        <text font-size="28" x="477.20172" y="-60.410458" fill="#000000"
              style="text-anchor: middle; dominant-baseline: central;"
              font-family="微软雅黑" class="id_智能">
            智能
        </text>
        <text font-size="28" x="-24.173815" y="233.38733" fill="#000000"
              style="text-anchor: middle; dominant-baseline: central;"
              font-family="微软雅黑" class="id_科技">
            科技
        </text>
        <text font-size="28" x="-340.34814" y="-310.3515" fill="#000000"
              style="text-anchor: middle; dominant-baseline: central;"
              font-family="微软雅黑" class="id_技术">
            技术
        </text>
        <text font-size="28" x="38.183064" y="-435.82568" fill="#000000"
              style="text-anchor: middle; dominant-baseline: central;"
              font-family="微软雅黑" class="id_行业">
            行业
        </text>
        <text font-size="28" x="337.46796" y="344.81055" fill="#000000"
              style="text-anchor: middle; dominant-baseline: central;"
              font-family="微软雅黑" class="id_人类">
            人类
        </text>
        <text font-size="28" x="-455.58008" y="-126.53617" fill="#000000"
              style="text-anchor: middle; dominant-baseline: central;"
              font-family="微软雅黑" class="id_创新">
            创新
        </text>
        <text font-size="28" x="131.75928" y="-204.35107" fill="#000000"
              style="text-anchor: middle; dominant-baseline: central;"
              font-family="微软雅黑" class="id_模型">
            模型
        </text>
        <text font-size="28" x="240.89049" y="-28.076601" fill="#000000"
              style="text-anchor: middle; dominant-baseline: central;"
              font-family="微软雅黑" class="id_时代">
            时代
        </text>
        <text font-size="28" x="-203.67719" y="377.6485" fill="#000000"
              style="text-anchor: middle; dominant-baseline: central;"
              font-family="微软雅黑" class="id_产业">
            产业
        </text>
        <text font-size="28" x="607.4125" y="-314.2036" fill="#000000"
              style="text-anchor: middle; dominant-baseline: central;"
              font-family="微软雅黑" class="id_社会">
            社会
        </text>
        <text font-size="28" x="-48.12497" y="521.7064" fill="#000000"
              style="text-anchor: middle; dominant-baseline: central;"
              font-family="微软雅黑" class="id_机器人">
            机器人
        </text>
        <text font-size="28" x="-2.4256864" y="-2.180645" fill="#000000"
              style="text-anchor: middle; dominant-baseline: central;"
              font-family="微软雅黑" class="id_AI">
            AI
        </text>
        <text font-size="28" x="-650.8013" y="-224.06711" fill="#000000"
              style="text-anchor: middle; dominant-baseline: central;"
              font-family="微软雅黑" class="id_感受">
            感受
        </text>
        <text font-size="28" x="-364.6316" y="565.88306" fill="#000000"
              style="text-anchor: middle; dominant-baseline: central;"
              font-family="微软雅黑" class="id_视频">
            视频
        </text>
        <text font-size="28" x="279.2899" y="614.3739" fill="#000000"
              style="text-anchor: middle; dominant-baseline: central;"
              font-family="微软雅黑" class="id_赋能">
            赋能
        </text>
        <text font-size="28" x="250.8982" y="-420.37262" fill="#000000"
              style="text-anchor: middle; dominant-baseline: central;"
              font-family="微软雅黑" class="id_人工">
            人工
        </text>
        <text font-size="28" x="473.02173" y="515.2052" fill="#000000"
              style="text-anchor: middle; dominant-baseline: central;"
              font-family="微软雅黑" class="id_加速">
            加速
        </text>
        <text font-size="28" x="136.25108" y="423.6828" fill="#000000"
              style="text-anchor: middle; dominant-baseline: central;"
              font-family="微软雅黑" class="id_消费">
            消费
        </text>
        <text font-size="28" x="-537.0337" y="-416.6106" fill="#000000"
              style="text-anchor: middle; dominant-baseline: central;"
              font-family="微软雅黑" class="id_百业">
            百业
        </text>
        <text font-size="28" x="472.76437" y="-494.99225" fill="#000000"
              style="text-anchor: middle; dominant-baseline: central;"
              font-family="微软雅黑" class="id_拥抱">
            拥抱
        </text>
        <text font-size="28" x="383.23618" y="-251.08662" fill="#000000"
              style="text-anchor: middle; dominant-baseline: central;"
              font-family="微软雅黑" class="id_致力">
            致力
        </text>
        <text font-size="28" x="-374.75818" y="-570.6583" fill="#000000"
              style="text-anchor: middle; dominant-baseline: central;"
              font-family="微软雅黑" class="id_引擎">
            引擎
        </text>
        <text font-size="28" x="-654.91486" y="227.34503" fill="#000000"
              style="text-anchor: middle; dominant-baseline: central;"
              font-family="微软雅黑" class="id_改变">
            改变
        </text>
        <text font-size="28" x="-160.95277" y="-669.58545" fill="#000000"
              style="text-anchor: middle; dominant-baseline: central;"
              font-family="微软雅黑" class="id_带来">
            带来
        </text>
        <text font-size="28" x="602.322" y="332.26678" fill="#000000"
              style="text-anchor: middle; dominant-baseline: central;"
              font-family="微软雅黑" class="id_举办">
            举办
        </text>
        <text font-size="28" x="-463.81552" y="88.084595" fill="#000000"
              style="text-anchor: middle; dominant-baseline: central;"
              font-family="微软雅黑" class="id_创造">
            创造
        </text>
        <text font-size="28" x="79.11016" y="703.32056" fill="#000000"
              style="text-anchor: middle; dominant-baseline: central;"
              font-family="微软雅黑" class="id_超越">
            超越
        </text>
        <text font-size="28" x="-404.6409" y="295.97382" fill="#000000"
              style="text-anchor: middle; dominant-baseline: central;"
              font-family="微软雅黑" class="id_精彩">
            精彩
        </text>
        <text font-size="28" x="-176.61523" y="-450.29553" fill="#000000"
              style="text-anchor: middle; dominant-baseline: central;"
              font-family="微软雅黑" class="id_成果">
            成果
        </text>
        <text font-size="28" x="274.91684" y="-635.3628" fill="#000000"
              style="text-anchor: middle; dominant-baseline: central;"
              font-family="微软雅黑" class="id_魅力">
            魅力
        </text>
        <text font-size="28" x="-690.27893" y="-0.05040121" fill="#000000"
              style="text-anchor: middle; dominant-baseline: central;"
              font-family="微软雅黑" class="id_博览会">
            博览会
        </text>
        <text font-size="28" x="-552.2992" y="444.67603" fill="#000000"
              style="text-anchor: middle; dominant-baseline: central;"
              font-family="微软雅黑" class="id_亮相">
            亮相
        </text>
        <text font-size="28" x="688.96704" y="-104.2072" fill="#000000"
              style="text-anchor: middle; dominant-baseline: central;"
              font-family="微软雅黑" class="id_开源">
            开源
        </text>
    </g>
</svg>