<?xml version="1.0" encoding="UTF-8"?>
<!DOCTYPE svg PUBLIC "-//W3C//DTD SVG 1.1//EN"
    "http://www.w3.org/Graphics/SVG/1.1/DTD/svg11.dtd" >
<svg contentScriptType="text/ecmascript" width="1418.3308"
     xmlns:xlink="http://www.w3.org/1999/xlink" zoomAndPan="magnify"
     contentStyleType="text/css"
     viewBox="-713.716614 -699.260803 1418.330811 1423.665527"
     height="1423.6655" preserveAspectRatio="xMidYMid meet"
     xmlns="http://www.w3.org/2000/svg" version="1.1">
    <g id="edges">
        <path stroke-linecap="round" fill="none" class="id_新闻 id_社区"
              d="M -225.490387,-421.058014 A 396.477696,396.477696 0,0 1,-636.576660,-244.158005"
              stroke="#c98694" stroke-width="9.6" stroke-opacity="0.2"/>
        <path fill="none" stroke-width="19.2"
              d="M -212.909698,-442.356781 C -163.436005,-491.830475 -163.436005,-392.883087 -212.909698,-442.356781"
              class="id_新闻" stroke-opacity="0.2" stroke="#9a96e5"/>
        <path stroke-linecap="round" fill="none" class="id_新闻 id_旗下"
              d="M -192.186783,-455.865021 A 364.054704,364.054704 0,0 1,215.844437,-434.590790"
              stroke="#c98694" stroke-width="9.6" stroke-opacity="0.2"/>
        <path stroke-linecap="round" fill="none" class="id_新闻 id_兴趣"
              d="M -220.243912,-465.981354 A 202.839970,202.839970 0,0 1,-153.133408,-669.972473"
              stroke="#c98694" stroke-width="9.6" stroke-opacity="0.2"/>
        <path stroke-linecap="round" fill="none" class="id_新闻 id_小伙伴"
              d="M -233.148804,-428.133911 A 265.465154,265.465154 0,0 1,-523.226501,-431.644287"
              stroke="#c98694" stroke-width="9.6" stroke-opacity="0.2"/>
        <path stroke-linecap="round" fill="none" class="id_新闻 id_交流"
              d="M -237.179611,-447.140381 A 179.933477,179.933477 0,0 1,-366.177155,-582.732056"
              stroke="#c98694" stroke-width="9.6" stroke-opacity="0.2"/>
        <path stroke-linecap="round" fill="none" class="id_新闻 id_无限"
              d="M -192.726563,-428.054596 A 191.343465,191.343465 0,0 1,-122.726837,-261.356995"
              stroke="#61a4a7" stroke-width="11.2" stroke-opacity="0.2"/>
        <path fill="none" stroke-width="30.0"
              d="M 454.946960,-71.203125 C 517.052246,-133.308380 517.052246,-9.097862 454.946960,-71.203125"
              class="id_人工智能" stroke-opacity="0.2" stroke="#9a96e5"/>
        <path stroke-linecap="round" fill="none" class="id_人工智能 id_智能"
              d="M 470.742218,-44.467831 A 170.523853,170.523853 0,0 1,457.036102,125.326431"
              stroke="#c98694" stroke-width="25.6" stroke-opacity="0.2"/>
        <path stroke-linecap="round" fill="none" class="id_人工智能 id_科技"
              d="M 431.780273,-50.525330 A 380.683884,380.683884 0,0 1,29.337545,0.447726"
              stroke="#61a4a7" stroke-width="17.2" stroke-opacity="0.2"/>
        <path stroke-linecap="round" fill="none" class="id_人工智能 id_技术"
              d="M 455.370667,-102.252869 A 237.717454,237.717454 0,0 1,600.805664,-302.876495"
              stroke="#c98694" stroke-width="19.2" stroke-opacity="0.2"/>
        <path stroke-linecap="round" fill="none" class="id_人工智能 id_行业"
              d="M 465.114716,-41.862324 A 584.400256,584.400256 0,0 1,273.449219,590.824829"
              stroke="#9a96e5" stroke-width="13.2" stroke-opacity="0.2"/>
        <path stroke-linecap="round" fill="none" class="id_人工智能 id_人类"
              d="M 466.876465,-42.533405 A 343.609326,343.609326 0,0 1,389.359436,315.549469"
              stroke="#9a96e5" stroke-width="36.0" stroke-opacity="0.2"/>
        <path stroke-linecap="round" fill="none" class="id_人工智能 id_创新"
              d="M 427.840118,-56.054337 A 189.217814,189.217814 0,0 1,248.179993,-68.375313"
              stroke="#61a4a7" stroke-width="14.0" stroke-opacity="0.2"/>
        <path stroke-linecap="round" fill="none" class="id_人工智能 id_模型"
              d="M 437.480682,-45.528332 A 579.979683,579.979683 0,0 1,-154.885773,182.587997"
              stroke="#9a96e5" stroke-width="16.0" stroke-opacity="0.2"/>
        <path stroke-linecap="round" fill="none" class="id_人工智能 id_时代"
              d="M 455.573059,-40.156807 A 440.360802,440.360802 0,0 1,196.473816,354.540680"
              stroke="#9a96e5" stroke-width="19.6" stroke-opacity="0.2"/>
        <path stroke-linecap="round" fill="none" class="id_人工智能 id_产业"
              d="M 446.025299,-41.459728 A 266.028025,266.028025 0,0 1,230.054993,131.220169"
              stroke="#9a96e5" stroke-width="12.8" stroke-opacity="0.2"/>
        <path stroke-linecap="round" fill="none" class="id_社会 id_人类"
              d="M 676.489258,130.239548 A 311.768176,311.768176 0,0 1,396.154266,332.631897"
              stroke="#c98694" stroke-width="9.6" stroke-opacity="0.2"/>
        <path fill="none" stroke-width="12.8"
              d="M 606.452515,337.930542 C 634.873596,309.509491 634.873596,366.351593 606.452515,337.930542"
              class="id_机器人" stroke-opacity="0.2" stroke="#f97743"/>
        <path stroke-linecap="round" fill="none" class="id_机器人 id_人类"
              d="M 594.600769,345.771179 A 195.913294,195.913294 0,0 1,391.790375,346.609344"
              stroke="#c98694" stroke-width="10.400001" stroke-opacity="0.2"/>
        <path fill="none" stroke-width="14.8"
              d="M -8.185387,227.932053 C 91.814613,127.932053 91.814613,327.932068 -8.185387,227.932053"
              class="id_AI" stroke-opacity="0.2" stroke="#28b36a"/>
        <path stroke-linecap="round" fill="none" class="id_AI id_科技"
              d="M -31.190777,183.538895 A 201.614346,201.614346 0,0 1,-15.977774,11.695763"
              stroke="#28b36a" stroke-width="20.0" stroke-opacity="0.2"/>
        <path stroke-linecap="round" fill="none" class="id_AI id_感受"
              d="M -58.168877,226.647247 A 470.892112,470.892112 0,0 1,-464.811218,-85.129723"
              stroke="#28b36a" stroke-width="8.8" stroke-opacity="0.2"/>
        <path stroke-linecap="round" fill="none" class="id_AI id_行业"
              d="M 38.382107,246.138336 A 383.101334,383.101334 0,0 1,258.885254,583.693848"
              stroke="#61a4a7" stroke-width="13.2" stroke-opacity="0.2"/>
        <path stroke-linecap="round" fill="none" class="id_AI id_人类"
              d="M 39.607277,213.239838 A 328.135795,328.135795 0,0 1,355.557281,313.595490"
              stroke="#61a4a7" stroke-width="10.8" stroke-opacity="0.2"/>
        <path stroke-linecap="round" fill="none" class="id_AI id_创新"
              d="M -4.016089,178.106186 A 325.446103,325.446103 0,0 1,204.671387,-75.276390"
              stroke="#28b36a" stroke-width="20.800001" stroke-opacity="0.2"/>
        <path stroke-linecap="round" fill="none" class="id_AI id_视频"
              d="M -50.827930,254.039780 A 536.996846,536.996846 0,0 1,-642.438782,204.909607"
              stroke="#61a4a7" stroke-width="8.0" stroke-opacity="0.2"/>
        <path stroke-linecap="round" fill="none" class="id_AI id_无限"
              d="M -45.349476,194.483124 A 393.591166,393.591166 0,0 1,-139.866241,-197.519669"
              stroke="#28b36a" stroke-width="11.2" stroke-opacity="0.2"/>
        <path stroke-linecap="round" fill="none" class="id_AI id_模型"
              d="M -57.166687,237.973587 A 164.324093,164.324093 0,0 1,-166.747009,203.115921"
              stroke="#61a4a7" stroke-width="27.2" stroke-opacity="0.2"/>
        <path stroke-linecap="round" fill="none" class="id_AI id_时代"
              d="M 40.972652,237.069183 A 183.789055,183.789055 0,0 1,149.392075,333.208801"
              stroke="#61a4a7" stroke-width="25.6" stroke-opacity="0.2"/>
        <path stroke-linecap="round" fill="none" class="id_AI id_产业"
              d="M 21.797312,187.919083 A 197.971107,197.971107 0,0 1,189.418808,129.361267"
              stroke="#61a4a7" stroke-width="13.2" stroke-opacity="0.2"/>
        <path stroke-linecap="round" fill="none" class="id_AI id_赋能"
              d="M -55.755798,243.328674 A 372.028794,372.028794 0,0 1,-428.906952,124.393570"
              stroke="#61a4a7" stroke-width="13.2" stroke-opacity="0.2"/>
        <path stroke-linecap="round" fill="none" class="id_AI id_人工"
              d="M -38.969074,267.332123 A 492.770061,492.770061 0,0 1,-560.952087,414.158752"
              stroke="#61a4a7" stroke-width="8.0" stroke-opacity="0.2"/>
        <path stroke-linecap="round" fill="none" class="id_AI id_加速"
              d="M -20.587231,276.369568 A 424.599236,424.599236 0,0 1,-371.846100,568.275879"
              stroke="#61a4a7" stroke-width="10.8" stroke-opacity="0.2"/>
        <path stroke-linecap="round" fill="none" class="id_AI id_景应势"
              d="M 25.276117,265.084808 A 399.602137,399.602137 0,0 1,71.031082,689.258545"
              stroke="#61a4a7" stroke-width="10.8" stroke-opacity="0.2"/>
        <path stroke-linecap="round" fill="none" class="id_AI id_百业"
              d="M -19.270750,276.687714 A 223.023902,223.023902 0,0 1,-177.621887,420.002289"
              stroke="#61a4a7" stroke-width="12.8" stroke-opacity="0.2"/>
        <path stroke-linecap="round" fill="none" class="id_AI id_拥抱"
              d="M -55.836136,212.785889 A 296.699385,296.699385 0,0 1,-237.414551,-29.325863"
              stroke="#61a4a7" stroke-width="13.2" stroke-opacity="0.2"/>
        <path stroke-linecap="round" fill="none" class="id_AI id_致力"
              d="M 18.814768,270.015198 A 227.840618,227.840618 0,0 1,9.630705,489.232727"
              stroke="#61a4a7" stroke-width="12.8" stroke-opacity="0.2"/>
        <path stroke-linecap="round" fill="none" class="id_AI id_引擎"
              d="M -42.713497,264.095703 A 320.369174,320.369174 0,0 1,-368.113983,325.735535"
              stroke="#61a4a7" stroke-width="13.2" stroke-opacity="0.2"/>
        <path stroke-linecap="round" fill="none" class="id_科技 id_改变"
              d="M 12.702807,-42.856979 A 382.412679,382.412679 0,0 1,368.582153,-275.914093"
              stroke="#61a4a7" stroke-width="13.2" stroke-opacity="0.2"/>
        <path stroke-linecap="round" fill="none" class="id_科技 id_感受"
              d="M -26.523851,-0.955181 A 398.902114,398.902114 0,0 1,-459.504089,-88.359283"
              stroke="#28b36a" stroke-width="9.6" stroke-opacity="0.2"/>
        <path stroke-linecap="round" fill="none" class="id_科技 id_带来"
              d="M 7.166450,-44.377281 A 563.503090,563.503090 0,0 1,472.844513,-487.644897"
              stroke="#61a4a7" stroke-width="8.0" stroke-opacity="0.2"/>
        <path stroke-linecap="round" fill="none" class="id_科技 id_创新"
              d="M 21.981440,-37.356178 A 197.303065,197.303065 0,0 1,204.446335,-89.886459"
              stroke="#28b36a" stroke-width="21.2" stroke-opacity="0.2"/>
        <path stroke-linecap="round" fill="none" class="id_科技 id_无限"
              d="M -26.132948,-27.474903 A 209.525189,209.525189 0,0 1,-129.327469,-195.590240"
              stroke="#28b36a" stroke-width="16.0" stroke-opacity="0.2"/>
        <path stroke-linecap="round" fill="none" class="id_科技 id_模型"
              d="M -5.788584,16.323196 A 226.756201,226.756201 0,0 1,-154.439972,162.981018"
              stroke="#61a4a7" stroke-width="14.8" stroke-opacity="0.2"/>
        <path stroke-linecap="round" fill="none" class="id_科技 id_时代"
              d="M 27.793392,3.106056 A 345.344072,345.344072 0,0 1,168.956512,331.783539"
              stroke="#61a4a7" stroke-width="14.8" stroke-opacity="0.2"/>
        <path stroke-linecap="round" fill="none" class="id_科技 id_产业"
              d="M 32.768501,-12.409305 A 212.088017,212.088017 0,0 1,202.367447,113.846146"
              stroke="#61a4a7" stroke-width="8.0" stroke-opacity="0.2"/>
        <path stroke-linecap="round" fill="none" class="id_科技 id_赋能"
              d="M -18.031931,10.137394 A 382.098704,382.098704 0,0 1,-423.886261,117.282608"
              stroke="#61a4a7" stroke-width="11.2" stroke-opacity="0.2"/>
        <path stroke-linecap="round" fill="none" class="id_举办 id_无限"
              d="M 4.170458,-460.651978 A 229.453141,229.453141 0,0 1,-99.622864,-244.671219"
              stroke="#61a4a7" stroke-width="11.2" stroke-opacity="0.2"/>
        <path stroke-linecap="round" fill="none" class="id_感受 id_无限"
              d="M -461.510498,-110.432137 A 303.898583,303.898583 0,0 1,-161.033707,-236.106979"
              stroke="#28b36a" stroke-width="14.0" stroke-opacity="0.2"/>
        <path fill="none" stroke-width="11.2"
              d="M 614.078003,-307.954285 C 642.499084,-336.375336 642.499084,-279.533234 614.078003,-307.954285"
              class="id_技术" stroke-opacity="0.2" stroke="#f97743"/>
        <path stroke-linecap="round" fill="none" class="id_行业 id_模型"
              d="M 240.628891,599.719482 A 522.545247,522.545247 0,0 1,-187.994171,214.515472"
              stroke="#9a96e5" stroke-width="12.0" stroke-opacity="0.2"/>
        <path stroke-linecap="round" fill="none" class="id_行业 id_时代"
              d="M 243.456177,592.063904 A 210.856887,210.856887 0,0 1,155.806747,405.344757"
              stroke="#9a96e5" stroke-width="11.2" stroke-opacity="0.2"/>
        <path stroke-linecap="round" fill="none" class="id_行业 id_产业"
              d="M 246.681366,588.323669 A 393.037297,393.037297 0,0 1,199.541718,150.939133"
              stroke="#9a96e5" stroke-width="10.8" stroke-opacity="0.2"/>
        <path fill="none" stroke-width="28.0"
              d="M 371.417480,332.578796 C 420.891174,283.105103 420.891174,382.052490 371.417480,332.578796"
              class="id_人类" stroke-opacity="0.2" stroke="#9a96e5"/>
        <path stroke-linecap="round" fill="none" class="id_人类 id_创造"
              d="M 371.542969,307.842285 A 443.051181,443.051181 0,0 1,671.115295,-96.801071"
              stroke="#c98694" stroke-width="8.0" stroke-opacity="0.2"/>
        <path stroke-linecap="round" fill="none" class="id_人类 id_超越"
              d="M 392.055603,346.216217 A 182.032082,182.032082 0,0 1,460.796234,523.002319"
              stroke="#c98694" stroke-width="11.2" stroke-opacity="0.2"/>
        <path stroke-linecap="round" fill="none" class="id_创新 id_无限"
              d="M 204.033585,-77.615517 A 321.270968,321.270968 0,0 1,-110.226097,-201.210266"
              stroke="#28b36a" stroke-width="11.2" stroke-opacity="0.2"/>
        <path stroke-linecap="round" fill="none" class="id_创新 id_模型"
              d="M 218.155807,-60.334831 A 413.217401,413.217401 0,0 1,-153.593918,174.045349"
              stroke="#61a4a7" stroke-width="14.400001" stroke-opacity="0.2"/>
        <path stroke-linecap="round" fill="none" class="id_创新 id_时代"
              d="M 239.280350,-60.834274 A 380.217753,380.217753 0,0 1,187.001740,340.873291"
              stroke="#61a4a7" stroke-width="12.8" stroke-opacity="0.2"/>
        <path stroke-linecap="round" fill="none" class="id_创新 id_精彩"
              d="M 204.527512,-90.158325 A 179.084733,179.084733 0,0 1,90.756859,-235.182495"
              stroke="#61a4a7" stroke-width="8.8" stroke-opacity="0.2"/>
        <path stroke-linecap="round" fill="none" class="id_创新 id_成果"
              d="M 216.659348,-104.830772 A 457.356854,457.356854 0,0 1,291.833130,-618.271484"
              stroke="#61a4a7" stroke-width="9.6" stroke-opacity="0.2"/>
        <path stroke-linecap="round" fill="none" class="id_魅力 id_无限"
              d="M -684.240845,-27.320389 A 499.128856,499.128856 0,0 1,-160.811096,-237.023758"
              stroke="#61a4a7" stroke-width="12.400001" stroke-opacity="0.2"/>
        <path stroke-linecap="round" fill="none" class="id_视频 id_无限"
              d="M -648.804199,185.584946 A 562.235695,562.235695 0,0 1,-161.782028,-226.441696"
              stroke="#61a4a7" stroke-width="11.6" stroke-opacity="0.2"/>
        <path stroke-linecap="round" fill="none" class="id_无限 id_精彩"
              d="M -102.050758,-248.466599 A 182.620613,182.620613 0,0 1,79.189018,-253.314102"
              stroke="#61a4a7" stroke-width="11.2" stroke-opacity="0.2"/>
        <path stroke-linecap="round" fill="none" class="id_无限 id_成果"
              d="M -121.698723,-261.151703 A 487.754599,487.754599 0,0 1,288.166748,-625.613525"
              stroke="#61a4a7" stroke-width="11.2" stroke-opacity="0.2"/>
        <path stroke-linecap="round" fill="none" class="id_无限 id_博览会"
              d="M -160.062332,-217.967133 A 203.976738,203.976738 0,0 1,-360.366852,-277.307037"
              stroke="#61a4a7" stroke-width="11.2" stroke-opacity="0.2"/>
        <path stroke-linecap="round" fill="none" class="id_无限 id_亮相"
              d="M -134.327026,-261.419922 A 417.496525,417.496525 0,0 1,72.934723,-678.576965"
              stroke="#61a4a7" stroke-width="11.2" stroke-opacity="0.2"/>
        <path fill="none" stroke-width="16.0"
              d="M -197.221252,171.816864 C -109.852829,84.448441 -109.852829,259.185303 -197.221252,171.816864"
              class="id_模型" stroke-opacity="0.2" stroke="#9a96e5"/>
        <path stroke-linecap="round" fill="none" class="id_模型 id_时代"
              d="M -153.670990,168.398560 A 341.117693,341.117693 0,0 1,144.505112,335.330811"
              stroke="#9a96e5" stroke-width="23.2" stroke-opacity="0.2"/>
        <path stroke-linecap="round" fill="none" class="id_模型 id_产业"
              d="M -163.098114,144.541931 A 340.562095,340.562095 0,0 1,191.780777,122.882103"
              stroke="#9a96e5" stroke-width="12.0" stroke-opacity="0.2"/>
        <path stroke-linecap="round" fill="none" class="id_模型 id_赋能"
              d="M -239.018478,184.517349 A 207.799089,207.799089 0,0 1,-428.442505,123.998627"
              stroke="#9a96e5" stroke-width="12.0" stroke-opacity="0.2"/>
        <path stroke-linecap="round" fill="none" class="id_模型 id_开源"
              d="M -171.666016,207.246231 A 414.845590,414.845590 0,0 1,-174.647186,661.074890"
              stroke="#c98694" stroke-width="14.400001" stroke-opacity="0.2"/>
        <path stroke-linecap="round" fill="none" class="id_模型 id_加速"
              d="M -191.076584,215.066757 A 367.076096,367.076096 0,0 1,-373.527832,562.958313"
              stroke="#9a96e5" stroke-width="11.2" stroke-opacity="0.2"/>
        <path stroke-linecap="round" fill="none" class="id_模型 id_景应势"
              d="M -159.159073,193.254700 A 492.668132,492.668132 0,0 1,66.961220,687.901184"
              stroke="#9a96e5" stroke-width="10.8" stroke-opacity="0.2"/>
        <path stroke-linecap="round" fill="none" class="id_模型 id_百业"
              d="M -173.958344,208.791809 A 209.278798,209.278798 0,0 1,-183.666916,411.054565"
              stroke="#9a96e5" stroke-width="11.2" stroke-opacity="0.2"/>
        <path stroke-linecap="round" fill="none" class="id_模型 id_拥抱"
              d="M -225.814896,138.790909 A 182.704282,182.704282 0,0 1,-244.337051,-30.479729"
              stroke="#9a96e5" stroke-width="11.2" stroke-opacity="0.2"/>
        <path stroke-linecap="round" fill="none" class="id_模型 id_致力"
              d="M -157.917450,190.883102 A 320.710742,320.710742 0,0 1,2.998353,486.987000"
              stroke="#9a96e5" stroke-width="11.6" stroke-opacity="0.2"/>
        <path stroke-linecap="round" fill="none" class="id_模型 id_引擎"
              d="M -212.567169,212.716904 A 197.195223,197.195223 0,0 1,-367.146545,319.468140"
              stroke="#9a96e5" stroke-width="11.6" stroke-opacity="0.2"/>
        <path stroke-linecap="round" fill="none" class="id_时代 id_产业"
              d="M 148.993591,333.351532 A 200.178558,200.178558 0,0 1,194.992065,147.461380"
              stroke="#9a96e5" stroke-width="11.2" stroke-opacity="0.2"/>
        <path stroke-linecap="round" fill="none" class="id_时代 id_赋能"
              d="M 125.212479,376.086487 A 544.629444,544.629444 0,0 1,-430.872528,125.774132"
              stroke="#9a96e5" stroke-width="11.6" stroke-opacity="0.2"/>
        <path stroke-linecap="round" fill="none" class="id_时代 id_加速"
              d="M 140.281372,399.013947 A 486.337108,486.337108 0,0 1,-372.302338,573.699829"
              stroke="#9a96e5" stroke-width="11.2" stroke-opacity="0.2"/>
        <path stroke-linecap="round" fill="none" class="id_时代 id_景应势"
              d="M 172.663925,404.211731 A 289.447341,289.447341 0,0 1,75.707100,693.102722"
              stroke="#9a96e5" stroke-width="10.8" stroke-opacity="0.2"/>
        <path stroke-linecap="round" fill="none" class="id_时代 id_百业"
              d="M 134.037720,393.478668 A 297.915180,297.915180 0,0 1,-178.846375,429.282349"
              stroke="#9a96e5" stroke-width="11.6" stroke-opacity="0.2"/>
        <path stroke-linecap="round" fill="none" class="id_时代 id_拥抱"
              d="M 125.135010,361.213287 A 478.730653,478.730653 0,0 1,-236.593063,-29.419453"
              stroke="#9a96e5" stroke-width="12.0" stroke-opacity="0.2"/>
        <path stroke-linecap="round" fill="none" class="id_时代 id_致力"
              d="M 149.236862,403.654480 A 173.155167,173.155167 0,0 1,16.050169,499.874146"
              stroke="#9a96e5" stroke-width="11.2" stroke-opacity="0.2"/>
        <path stroke-linecap="round" fill="none" class="id_时代 id_引擎"
              d="M 129.259323,386.840668 A 454.357434,454.357434 0,0 1,-370.599030,329.815582"
              stroke="#9a96e5" stroke-width="11.2" stroke-opacity="0.2"/>
    </g>
    <g id="nodes">
        <circle fill-opacity="1.0" fill="#9a96e5" r="22.757896" cx="-212.9097"
                class="id_新闻" cy="-442.35678" stroke="#6b69a0"
                stroke-opacity="1.0" stroke-width="3.9578948"/>
        <circle fill-opacity="1.0" fill="#f97743" r="9.2" cx="-646.36536"
                class="id_社区" cy="-246.20277" stroke="#ae532e"
                stroke-opacity="1.0" stroke-width="1.5999999"/>
        <circle fill-opacity="1.0" fill="#f97743" r="9.2" cx="223.73447"
                class="id_旗下" cy="-428.4469" stroke="#ae532e"
                stroke-opacity="1.0" stroke-width="1.5999999"/>
        <circle fill-opacity="1.0" fill="#f97743" r="9.2" cx="-145.29814"
                class="id_兴趣" cy="-676.18604" stroke="#ae532e"
                stroke-opacity="1.0" stroke-width="1.5999999"/>
        <circle fill-opacity="1.0" fill="#f97743" r="9.2" cx="-531.4288"
                class="id_小伙伴" cy="-437.36472" stroke="#ae532e"
                stroke-opacity="1.0" stroke-width="1.5999999"/>
        <circle fill-opacity="1.0" fill="#f97743" r="9.2" cx="-368.02423"
                class="id_交流" cy="-592.56" stroke="#ae532e" stroke-opacity="1.0"
                stroke-width="1.5999999"/>
        <circle fill-opacity="1.0" fill="#28b36a" r="30.505262" cx="-128.70404"
                class="id_无限" cy="-228.74228" stroke="#1c7d4a"
                stroke-opacity="1.0" stroke-width="5.305263"/>
        <circle fill-opacity="1.0" fill="#9a96e5" r="28.56842" cx="454.94696"
                class="id_人工智能" cy="-71.203125" stroke="#6b69a0"
                stroke-opacity="1.0" stroke-width="4.968421"/>
        <circle fill-opacity="1.0" fill="#f97743" r="9.2" cx="451.1215"
                class="id_智能" cy="133.38976" stroke="#ae532e"
                stroke-opacity="1.0" stroke-width="1.5999999"/>
        <circle fill-opacity="1.0" fill="#28b36a" r="28.56842" cx="1.7470797"
                class="id_科技" cy="-13.801208" stroke="#1c7d4a"
                stroke-opacity="1.0" stroke-width="4.968421"/>
        <circle fill-opacity="1.0" fill="#f97743" r="13.073685" cx="614.078"
                class="id_技术" cy="-307.95428" stroke="#ae532e"
                stroke-opacity="1.0" stroke-width="2.2736843"/>
        <circle fill-opacity="1.0" fill="#9a96e5" r="16.947369" cx="258.89352"
                class="id_行业" cy="602.1149" stroke="#6b69a0"
                stroke-opacity="1.0" stroke-width="2.9473684"/>
        <circle fill-opacity="1.0" fill="#9a96e5" r="22.757896" cx="371.41748"
                class="id_人类" cy="332.5788" stroke="#6b69a0"
                stroke-opacity="1.0" stroke-width="3.9578948"/>
        <circle fill-opacity="1.0" fill="#28b36a" r="22.757896" cx="228.1894"
                class="id_创新" cy="-82.94541" stroke="#1c7d4a"
                stroke-opacity="1.0" stroke-width="3.9578948"/>
        <circle fill-opacity="1.0" fill="#9a96e5" r="40.189476" cx="-197.22125"
                class="id_模型" cy="171.81686" stroke="#6b69a0"
                stroke-opacity="1.0" stroke-width="6.989474"/>
        <circle fill-opacity="1.0" fill="#9a96e5" r="34.37895" cx="161.7942"
                class="id_时代" cy="368.45914" stroke="#6b69a0"
                stroke-opacity="1.0" stroke-width="5.9789476"/>
        <circle fill-opacity="1.0" fill="#9a96e5" r="18.88421" cx="209.61058"
                class="id_产业" cy="133.05205" stroke="#6b69a0"
                stroke-opacity="1.0" stroke-width="3.2842104"/>
        <circle fill-opacity="1.0" fill="#f97743" r="9.2" cx="679.8398"
                class="id_社会" cy="120.81756" stroke="#ae532e"
                stroke-opacity="1.0" stroke-width="1.5999999"/>
        <circle fill-opacity="1.0" fill="#f97743" r="13.073685" cx="606.4525"
                class="id_机器人" cy="337.93054" stroke="#ae532e"
                stroke-opacity="1.0" stroke-width="2.2736843"/>
        <circle fill-opacity="1.0" fill="#28b36a" r="46.0" cx="-8.185387"
                class="id_AI" cy="227.93205" stroke="#1c7d4a"
                stroke-opacity="1.0" stroke-width="8.0"/>
        <circle fill-opacity="1.0" fill="#28b36a" r="13.073685" cx="-469.36627"
                class="id_感受" cy="-98.59042" stroke="#1c7d4a"
                stroke-opacity="1.0" stroke-width="2.2736843"/>
        <circle fill-opacity="1.0" fill="#9a96e5" r="11.136842" cx="-651.85315"
                class="id_视频" cy="197.29994" stroke="#6b69a0"
                stroke-opacity="1.0" stroke-width="1.936842"/>
        <circle fill-opacity="1.0" fill="#9a96e5" r="15.010525" cx="-439.24207"
                class="id_赋能" cy="111.76857" stroke="#6b69a0"
                stroke-opacity="1.0" stroke-width="2.610526"/>
        <circle fill-opacity="1.0" fill="#9a96e5" r="9.2" cx="-570.44904"
                class="id_人工" cy="411.02692" stroke="#6b69a0"
                stroke-opacity="1.0" stroke-width="1.5999999"/>
        <circle fill-opacity="1.0" fill="#9a96e5" r="13.073685" cx="-385.97263"
                class="id_加速" cy="569.8188" stroke="#6b69a0"
                stroke-opacity="1.0" stroke-width="2.2736843"/>
        <circle fill-opacity="1.0" fill="#9a96e5" r="13.073685" cx="64.55172"
                class="id_景应势" cy="701.90594" stroke="#6b69a0"
                stroke-opacity="1.0" stroke-width="2.2736843"/>
        <circle fill-opacity="1.0" fill="#9a96e5" r="13.073685" cx="-191.53651"
                class="id_百业" cy="422.8871" stroke="#6b69a0"
                stroke-opacity="1.0" stroke-width="2.2736843"/>
        <circle fill-opacity="1.0" fill="#9a96e5" r="13.073685" cx="-238.61172"
                class="id_拥抱" cy="-43.48587" stroke="#6b69a0"
                stroke-opacity="1.0" stroke-width="2.2736843"/>
        <circle fill-opacity="1.0" fill="#9a96e5" r="13.073685" cx="1.8974679"
                class="id_致力" cy="501.15482" stroke="#6b69a0"
                stroke-opacity="1.0" stroke-width="2.2736843"/>
        <circle fill-opacity="1.0" fill="#9a96e5" r="13.073685" cx="-381.32037"
                class="id_引擎" cy="320.48862" stroke="#6b69a0"
                stroke-opacity="1.0" stroke-width="2.2736843"/>
        <circle fill-opacity="1.0" fill="#9a96e5" r="9.2" cx="378.5795"
                class="id_改变" cy="-275.6832" stroke="#6b69a0"
                stroke-opacity="1.0" stroke-width="1.5999999"/>
        <circle fill-opacity="1.0" fill="#9a96e5" r="9.2" cx="482.73987"
                class="id_带来" cy="-489.08786" stroke="#6b69a0"
                stroke-opacity="1.0" stroke-width="1.5999999"/>
        <circle fill-opacity="1.0" fill="#9a96e5" r="9.2" cx="2.9415457"
                class="id_举办" cy="-470.57617" stroke="#6b69a0"
                stroke-opacity="1.0" stroke-width="1.5999999"/>
        <circle fill-opacity="1.0" fill="#f97743" r="9.2" cx="680.61414"
                class="id_创造" cy="-99.927055" stroke="#ae532e"
                stroke-opacity="1.0" stroke-width="1.5999999"/>
        <circle fill-opacity="1.0" fill="#f97743" r="9.2" cx="458.76392"
                class="id_超越" cy="532.79364" stroke="#ae532e"
                stroke-opacity="1.0" stroke-width="1.5999999"/>
        <circle fill-opacity="1.0" fill="#9a96e5" r="11.136842" cx="89.65881"
                class="id_精彩" cy="-247.23785" stroke="#6b69a0"
                stroke-opacity="1.0" stroke-width="1.936842"/>
        <circle fill-opacity="1.0" fill="#9a96e5" r="11.136842" cx="300.18878"
                class="id_成果" cy="-627.0305" stroke="#6b69a0"
                stroke-opacity="1.0" stroke-width="1.936842"/>
        <circle fill-opacity="1.0" fill="#9a96e5" r="9.2" cx="-689.7166"
                class="id_魅力" cy="-18.95283" stroke="#6b69a0"
                stroke-opacity="1.0" stroke-width="1.5999999"/>
        <circle fill-opacity="1.0" fill="#9a96e5" r="9.2" cx="-366.9656"
                class="id_博览会" cy="-284.8208" stroke="#6b69a0"
                stroke-opacity="1.0" stroke-width="1.5999999"/>
        <circle fill-opacity="1.0" fill="#9a96e5" r="9.2" cx="81.68212"
                class="id_亮相" cy="-683.4229" stroke="#6b69a0"
                stroke-opacity="1.0" stroke-width="1.5999999"/>
        <circle fill-opacity="1.0" fill="#f97743" r="9.2" cx="-180.2721"
                class="id_开源" cy="669.34296" stroke="#ae532e"
                stroke-opacity="1.0" stroke-width="1.5999999"/>
    </g>
    <g id="node-labels">
        <text font-size="59" x="-212.9097" y="-428.13495" fill="#000000"
              style="text-anchor: middle; dominant-baseline: central;"
              font-family="微软雅黑" class="id_新闻">
            新闻
        </text>
        <text font-size="24" x="-646.36536" y="-240.48207" fill="#000000"
              style="text-anchor: middle; dominant-baseline: central;"
              font-family="微软雅黑" class="id_社区">
            社区
        </text>
        <text font-size="24" x="223.73447" y="-422.62073" fill="#000000"
              style="text-anchor: middle; dominant-baseline: central;"
              font-family="微软雅黑" class="id_旗下">
            旗下
        </text>
        <text font-size="24" x="-145.29814" y="-670.41846" fill="#000000"
              style="text-anchor: middle; dominant-baseline: central;"
              font-family="微软雅黑" class="id_兴趣">
            兴趣
        </text>
        <text font-size="24" x="-531.4288" y="-431.56784" fill="#000000"
              style="text-anchor: middle; dominant-baseline: central;"
              font-family="微软雅黑" class="id_小伙伴">
            小伙伴
        </text>
        <text font-size="24" x="-368.02423" y="-586.6635" fill="#000000"
              style="text-anchor: middle; dominant-baseline: central;"
              font-family="微软雅黑" class="id_交流">
            交流
        </text>
        <text font-size="80" x="-128.70404" y="-210.3178" fill="#000000"
              style="text-anchor: middle; dominant-baseline: central;"
              font-family="微软雅黑" class="id_无限">
            无限
        </text>
        <text font-size="75" x="454.94696" y="-52.886475" fill="#000000"
              style="text-anchor: middle; dominant-baseline: central;"
              font-family="微软雅黑" class="id_人工智能">
            人工智能
        </text>
        <text font-size="24" x="451.1215" y="139.25108" fill="#000000"
              style="text-anchor: middle; dominant-baseline: central;"
              font-family="微软雅黑" class="id_智能">
            智能
        </text>
        <text font-size="75" x="1.7470797" y="4.350648" fill="#000000"
              style="text-anchor: middle; dominant-baseline: central;"
              font-family="微软雅黑" class="id_科技">
            科技
        </text>
        <text font-size="34" x="614.078" y="-299.69226" fill="#000000"
              style="text-anchor: middle; dominant-baseline: central;"
              font-family="微软雅黑" class="id_技术">
            技术
        </text>
        <text font-size="44" x="258.89352" y="612.6996" fill="#000000"
              style="text-anchor: middle; dominant-baseline: central;"
              font-family="微软雅黑" class="id_行业">
            行业
        </text>
        <text font-size="59" x="371.41748" y="346.87268" fill="#000000"
              style="text-anchor: middle; dominant-baseline: central;"
              font-family="微软雅黑" class="id_人类">
            人类
        </text>
        <text font-size="59" x="228.1894" y="-68.72357" fill="#000000"
              style="text-anchor: middle; dominant-baseline: central;"
              font-family="微软雅黑" class="id_创新">
            创新
        </text>
        <text font-size="105" x="-197.22125" y="197.07565" fill="#000000"
              style="text-anchor: middle; dominant-baseline: central;"
              font-family="微软雅黑" class="id_模型">
            模型
        </text>
        <text font-size="90" x="161.7942" y="390.1315" fill="#000000"
              style="text-anchor: middle; dominant-baseline: central;"
              font-family="微软雅黑" class="id_时代">
            时代
        </text>
        <text font-size="49" x="209.61058" y="144.93518" fill="#000000"
              style="text-anchor: middle; dominant-baseline: central;"
              font-family="微软雅黑" class="id_产业">
            产业
        </text>
        <text font-size="24" x="679.8398" y="126.63787" fill="#000000"
              style="text-anchor: middle; dominant-baseline: central;"
              font-family="微软雅黑" class="id_社会">
            社会
        </text>
        <text font-size="34" x="606.4525" y="346.15106" fill="#000000"
              style="text-anchor: middle; dominant-baseline: central;"
              font-family="微软雅黑" class="id_机器人">
            机器人
        </text>
        <text font-size="120" x="-8.185387" y="250.62737" fill="#000000"
              style="text-anchor: middle; dominant-baseline: central;"
              font-family="微软雅黑" class="id_AI">
            AI
        </text>
        <text font-size="34" x="-469.36627" y="-90.30348" fill="#000000"
              style="text-anchor: middle; dominant-baseline: central;"
              font-family="微软雅黑" class="id_感受">
            感受
        </text>
        <text font-size="29" x="-651.85315" y="204.33282" fill="#000000"
              style="text-anchor: middle; dominant-baseline: central;"
              font-family="微软雅黑" class="id_视频">
            视频
        </text>
        <text font-size="39" x="-439.24207" y="121.24562" fill="#000000"
              style="text-anchor: middle; dominant-baseline: central;"
              font-family="微软雅黑" class="id_赋能">
            赋能
        </text>
        <text font-size="24" x="-570.44904" y="416.65387" fill="#000000"
              style="text-anchor: middle; dominant-baseline: central;"
              font-family="微软雅黑" class="id_人工">
            人工
        </text>
        <text font-size="34" x="-385.97263" y="578.0144" fill="#000000"
              style="text-anchor: middle; dominant-baseline: central;"
              font-family="微软雅黑" class="id_加速">
            加速
        </text>
        <text font-size="34" x="64.55172" y="710.1846" fill="#000000"
              style="text-anchor: middle; dominant-baseline: central;"
              font-family="微软雅黑" class="id_景应势">
            景应势
        </text>
        <text font-size="34" x="-191.53651" y="430.85028" fill="#000000"
              style="text-anchor: middle; dominant-baseline: central;"
              font-family="微软雅黑" class="id_百业">
            百业
        </text>
        <text font-size="34" x="-238.61172" y="-35.323437" fill="#000000"
              style="text-anchor: middle; dominant-baseline: central;"
              font-family="微软雅黑" class="id_拥抱">
            拥抱
        </text>
        <text font-size="34" x="1.8974679" y="509.44177" fill="#000000"
              style="text-anchor: middle; dominant-baseline: central;"
              font-family="微软雅黑" class="id_致力">
            致力
        </text>
        <text font-size="34" x="-381.32037" y="328.61786" fill="#000000"
              style="text-anchor: middle; dominant-baseline: central;"
              font-family="微软雅黑" class="id_引擎">
            引擎
        </text>
        <text font-size="24" x="378.5795" y="-269.8453" fill="#000000"
              style="text-anchor: middle; dominant-baseline: central;"
              font-family="微软雅黑" class="id_改变">
            改变
        </text>
        <text font-size="24" x="482.73987" y="-483.291" fill="#000000"
              style="text-anchor: middle; dominant-baseline: central;"
              font-family="微软雅黑" class="id_带来">
            带来
        </text>
        <text font-size="24" x="2.9415457" y="-464.76758" fill="#000000"
              style="text-anchor: middle; dominant-baseline: central;"
              font-family="微软雅黑" class="id_举办">
            举办
        </text>
        <text font-size="24" x="680.61414" y="-94.22979" fill="#000000"
              style="text-anchor: middle; dominant-baseline: central;"
              font-family="微软雅黑" class="id_创造">
            创造
        </text>
        <text font-size="24" x="458.76392" y="538.58466" fill="#000000"
              style="text-anchor: middle; dominant-baseline: central;"
              font-family="微软雅黑" class="id_超越">
            超越
        </text>
        <text font-size="29" x="89.65881" y="-240.24745" fill="#000000"
              style="text-anchor: middle; dominant-baseline: central;"
              font-family="微软雅黑" class="id_精彩">
            精彩
        </text>
        <text font-size="29" x="300.18878" y="-620.0331" fill="#000000"
              style="text-anchor: middle; dominant-baseline: central;"
              font-family="微软雅黑" class="id_成果">
            成果
        </text>
        <text font-size="24" x="-689.7166" y="-13.132517" fill="#000000"
              style="text-anchor: middle; dominant-baseline: central;"
              font-family="微软雅黑" class="id_魅力">
            魅力
        </text>
        <text font-size="24" x="-366.9656" y="-278.9712" fill="#000000"
              style="text-anchor: middle; dominant-baseline: central;"
              font-family="微软雅黑" class="id_博览会">
            博览会
        </text>
        <text font-size="24" x="81.68212" y="-677.585" fill="#000000"
              style="text-anchor: middle; dominant-baseline: central;"
              font-family="微软雅黑" class="id_亮相">
            亮相
        </text>
        <text font-size="24" x="-180.2721" y="675.06366" fill="#000000"
              style="text-anchor: middle; dominant-baseline: central;"
              font-family="微软雅黑" class="id_开源">
            开源
        </text>
    </g>
</svg>